<mxfile host="app.diagrams.net" modified="2023-05-04T06:02:07.108Z" agent="Mozilla/5.0 (Windows NT 10.0; Win64; x64) AppleWebKit/537.36 (KHTML, like Gecko) Chrome/110.0.0.0 YaBrowser/23.3.3.719 Yowser/2.5 Safari/537.36" etag="v0c5-YByODsM1zSY0Pa7" version="21.2.6" type="device">
  <diagram name="Page-1" id="2YBvvXClWsGukQMizWep">
    <mxGraphModel dx="819" dy="447" grid="1" gridSize="10" guides="1" tooltips="1" connect="1" arrows="1" fold="1" page="1" pageScale="1" pageWidth="850" pageHeight="1100" math="0" shadow="0">
      <root>
        <mxCell id="0" />
        <mxCell id="1" parent="0" />
        <mxCell id="yRDwu5R1AfCgXDm9UmEd-7" value="" style="rounded=0;whiteSpace=wrap;html=1;" parent="1" vertex="1">
          <mxGeometry x="190" y="860" width="20" height="70" as="geometry" />
        </mxCell>
        <mxCell id="yRDwu5R1AfCgXDm9UmEd-6" value="" style="rounded=0;whiteSpace=wrap;html=1;" parent="1" vertex="1">
          <mxGeometry x="190" y="790" width="20" height="70" as="geometry" />
        </mxCell>
        <mxCell id="yRDwu5R1AfCgXDm9UmEd-5" value="" style="rounded=0;whiteSpace=wrap;html=1;" parent="1" vertex="1">
          <mxGeometry x="190" y="340" width="20" height="450" as="geometry" />
        </mxCell>
        <mxCell id="aM9ryv3xv72pqoxQDRHE-1" value="MASTER" style="shape=umlLifeline;perimeter=lifelinePerimeter;whiteSpace=wrap;html=1;container=0;dropTarget=0;collapsible=0;recursiveResize=0;outlineConnect=0;portConstraint=eastwest;newEdgeStyle={&quot;edgeStyle&quot;:&quot;elbowEdgeStyle&quot;,&quot;elbow&quot;:&quot;vertical&quot;,&quot;curved&quot;:0,&quot;rounded&quot;:0};" parent="1" vertex="1">
          <mxGeometry x="150" y="280" width="100" height="60" as="geometry" />
        </mxCell>
        <mxCell id="aM9ryv3xv72pqoxQDRHE-5" value="EXT_MODULE" style="shape=umlLifeline;perimeter=lifelinePerimeter;whiteSpace=wrap;html=1;container=0;dropTarget=0;collapsible=0;recursiveResize=0;outlineConnect=0;portConstraint=eastwest;newEdgeStyle={&quot;edgeStyle&quot;:&quot;elbowEdgeStyle&quot;,&quot;elbow&quot;:&quot;vertical&quot;,&quot;curved&quot;:0,&quot;rounded&quot;:0};" parent="1" vertex="1">
          <mxGeometry x="520" y="280" width="100" height="630" as="geometry" />
        </mxCell>
        <mxCell id="aM9ryv3xv72pqoxQDRHE-7" value="AT" style="html=1;verticalAlign=bottom;endArrow=block;edgeStyle=elbowEdgeStyle;elbow=vertical;curved=0;rounded=0;exitX=1.112;exitY=0.048;exitDx=0;exitDy=0;exitPerimeter=0;" parent="1" source="yRDwu5R1AfCgXDm9UmEd-5" edge="1">
          <mxGeometry x="0.0009" relative="1" as="geometry">
            <mxPoint x="215" y="360" as="sourcePoint" />
            <Array as="points" />
            <mxPoint x="570" y="360" as="targetPoint" />
            <mxPoint as="offset" />
          </mxGeometry>
        </mxCell>
        <mxCell id="aM9ryv3xv72pqoxQDRHE-9" value="OK" style="html=1;verticalAlign=bottom;endArrow=block;edgeStyle=elbowEdgeStyle;elbow=vertical;curved=0;rounded=0;entryX=1.064;entryY=0.101;entryDx=0;entryDy=0;entryPerimeter=0;" parent="1" source="aM9ryv3xv72pqoxQDRHE-5" target="yRDwu5R1AfCgXDm9UmEd-5" edge="1">
          <mxGeometry relative="1" as="geometry">
            <mxPoint x="565" y="380" as="sourcePoint" />
            <Array as="points">
              <mxPoint x="500" y="380" />
              <mxPoint x="425" y="400" />
            </Array>
            <mxPoint x="335" y="399.9999999999999" as="targetPoint" />
          </mxGeometry>
        </mxCell>
        <mxCell id="1T1NDISbJiV7eEOlV3Co-1" value="AT+LIST?" style="html=1;verticalAlign=bottom;endArrow=block;edgeStyle=elbowEdgeStyle;elbow=vertical;curved=0;rounded=0;exitX=0.523;exitY=0.264;exitDx=0;exitDy=0;exitPerimeter=0;" parent="1" edge="1">
          <mxGeometry x="0.0009" relative="1" as="geometry">
            <mxPoint x="210" y="420" as="sourcePoint" />
            <Array as="points" />
            <mxPoint x="568" y="421" as="targetPoint" />
            <mxPoint as="offset" />
          </mxGeometry>
        </mxCell>
        <mxCell id="1T1NDISbJiV7eEOlV3Co-2" value="+LIST:index1,uuid1,...,indexN,uuidN" style="html=1;verticalAlign=bottom;endArrow=block;edgeStyle=elbowEdgeStyle;elbow=vertical;curved=0;rounded=0;" parent="1" edge="1">
          <mxGeometry relative="1" as="geometry">
            <mxPoint x="569.5" y="439.99999999999983" as="sourcePoint" />
            <Array as="points">
              <mxPoint x="500" y="440" />
              <mxPoint x="425" y="460" />
            </Array>
            <mxPoint x="210" y="440" as="targetPoint" />
          </mxGeometry>
        </mxCell>
        <mxCell id="1T1NDISbJiV7eEOlV3Co-3" value="AT+CFG=index,format,range,period=0" style="html=1;verticalAlign=bottom;endArrow=block;edgeStyle=elbowEdgeStyle;elbow=vertical;curved=0;rounded=0;exitX=0.523;exitY=0.264;exitDx=0;exitDy=0;exitPerimeter=0;" parent="1" edge="1">
          <mxGeometry x="0.0005" relative="1" as="geometry">
            <mxPoint x="212" y="500" as="sourcePoint" />
            <Array as="points" />
            <mxPoint x="570" y="501" as="targetPoint" />
            <mxPoint as="offset" />
          </mxGeometry>
        </mxCell>
        <mxCell id="1T1NDISbJiV7eEOlV3Co-4" value="OK" style="html=1;verticalAlign=bottom;endArrow=block;edgeStyle=elbowEdgeStyle;elbow=vertical;curved=0;rounded=0;" parent="1" edge="1">
          <mxGeometry x="-0.0008" relative="1" as="geometry">
            <mxPoint x="570" y="519.9999999999999" as="sourcePoint" />
            <Array as="points">
              <mxPoint x="500" y="520.29" />
              <mxPoint x="425" y="540.29" />
            </Array>
            <mxPoint x="210" y="520.29" as="targetPoint" />
            <mxPoint as="offset" />
          </mxGeometry>
        </mxCell>
        <mxCell id="1T1NDISbJiV7eEOlV3Co-5" value="AT+READ=index" style="html=1;verticalAlign=bottom;endArrow=block;edgeStyle=elbowEdgeStyle;elbow=vertical;curved=0;rounded=0;exitX=0.523;exitY=0.264;exitDx=0;exitDy=0;exitPerimeter=0;" parent="1" edge="1">
          <mxGeometry x="0.0005" relative="1" as="geometry">
            <mxPoint x="212" y="560" as="sourcePoint" />
            <Array as="points" />
            <mxPoint x="570" y="561" as="targetPoint" />
            <mxPoint as="offset" />
          </mxGeometry>
        </mxCell>
        <mxCell id="1T1NDISbJiV7eEOlV3Co-6" value="$index,value1,value2,value3" style="html=1;verticalAlign=bottom;endArrow=block;edgeStyle=elbowEdgeStyle;elbow=vertical;curved=0;rounded=0;" parent="1" edge="1">
          <mxGeometry x="-0.0008" relative="1" as="geometry">
            <mxPoint x="570" y="580" as="sourcePoint" />
            <Array as="points">
              <mxPoint x="500" y="580.29" />
              <mxPoint x="425" y="600.29" />
            </Array>
            <mxPoint x="210" y="580.29" as="targetPoint" />
            <mxPoint as="offset" />
          </mxGeometry>
        </mxCell>
        <mxCell id="1T1NDISbJiV7eEOlV3Co-11" value="polling_period" style="text;html=1;strokeColor=none;fillColor=none;align=center;verticalAlign=middle;whiteSpace=wrap;rounded=0;" parent="1" vertex="1">
          <mxGeometry x="570" y="750" width="90" height="20" as="geometry" />
        </mxCell>
        <mxCell id="1T1NDISbJiV7eEOlV3Co-12" value="polling_period" style="text;html=1;strokeColor=none;fillColor=none;align=center;verticalAlign=middle;whiteSpace=wrap;rounded=0;" parent="1" vertex="1">
          <mxGeometry x="570" y="670" width="90" height="20" as="geometry" />
        </mxCell>
        <mxCell id="1T1NDISbJiV7eEOlV3Co-13" value="polling_period" style="text;html=1;strokeColor=none;fillColor=none;align=center;verticalAlign=middle;whiteSpace=wrap;rounded=0;" parent="1" vertex="1">
          <mxGeometry x="570" y="710" width="90" height="20" as="geometry" />
        </mxCell>
        <mxCell id="yRDwu5R1AfCgXDm9UmEd-1" value="RTS = 0" style="text;html=1;strokeColor=none;fillColor=none;align=center;verticalAlign=middle;whiteSpace=wrap;rounded=0;rotation=-90;" parent="1" vertex="1">
          <mxGeometry x="170" y="520" width="60" height="30" as="geometry" />
        </mxCell>
        <mxCell id="yRDwu5R1AfCgXDm9UmEd-2" value="RTS = 1" style="text;html=1;strokeColor=none;fillColor=none;align=center;verticalAlign=middle;whiteSpace=wrap;rounded=0;rotation=-90;" parent="1" vertex="1">
          <mxGeometry x="170" y="810" width="60" height="30" as="geometry" />
        </mxCell>
        <mxCell id="yRDwu5R1AfCgXDm9UmEd-3" value="RTS = 0" style="text;html=1;strokeColor=none;fillColor=none;align=center;verticalAlign=middle;whiteSpace=wrap;rounded=0;rotation=-90;" parent="1" vertex="1">
          <mxGeometry x="170" y="880" width="60" height="30" as="geometry" />
        </mxCell>
        <mxCell id="NtLkrbkxCxMrIHebwTUG-1" value="OK" style="html=1;verticalAlign=bottom;endArrow=block;edgeStyle=elbowEdgeStyle;elbow=vertical;curved=0;rounded=0;" edge="1" parent="1">
          <mxGeometry relative="1" as="geometry">
            <mxPoint x="570" y="461" as="sourcePoint" />
            <Array as="points">
              <mxPoint x="310" y="460" />
              <mxPoint x="230" y="465" />
              <mxPoint x="240" y="461" />
              <mxPoint x="425" y="481" />
            </Array>
            <mxPoint x="210" y="460" as="targetPoint" />
          </mxGeometry>
        </mxCell>
        <mxCell id="NtLkrbkxCxMrIHebwTUG-2" value="OK" style="html=1;verticalAlign=bottom;endArrow=block;edgeStyle=elbowEdgeStyle;elbow=vertical;curved=0;rounded=0;" edge="1" parent="1">
          <mxGeometry x="-0.0008" relative="1" as="geometry">
            <mxPoint x="570" y="600.9999999999999" as="sourcePoint" />
            <Array as="points">
              <mxPoint x="500" y="601.29" />
              <mxPoint x="425" y="621.29" />
            </Array>
            <mxPoint x="210" y="601.29" as="targetPoint" />
            <mxPoint as="offset" />
          </mxGeometry>
        </mxCell>
        <mxCell id="NtLkrbkxCxMrIHebwTUG-3" value="AT+CFG=index,format,range,period=1000" style="html=1;verticalAlign=bottom;endArrow=block;edgeStyle=elbowEdgeStyle;elbow=vertical;curved=0;rounded=0;exitX=0.523;exitY=0.264;exitDx=0;exitDy=0;exitPerimeter=0;" edge="1" parent="1">
          <mxGeometry x="0.0005" relative="1" as="geometry">
            <mxPoint x="210" y="640.5" as="sourcePoint" />
            <Array as="points" />
            <mxPoint x="568" y="641.5" as="targetPoint" />
            <mxPoint as="offset" />
          </mxGeometry>
        </mxCell>
        <mxCell id="NtLkrbkxCxMrIHebwTUG-4" value="OK" style="html=1;verticalAlign=bottom;endArrow=block;edgeStyle=elbowEdgeStyle;elbow=vertical;curved=0;rounded=0;" edge="1" parent="1">
          <mxGeometry x="-0.0008" relative="1" as="geometry">
            <mxPoint x="570" y="660.9999999999999" as="sourcePoint" />
            <Array as="points">
              <mxPoint x="500" y="661.29" />
              <mxPoint x="425" y="681.29" />
            </Array>
            <mxPoint x="210" y="661.29" as="targetPoint" />
            <mxPoint as="offset" />
          </mxGeometry>
        </mxCell>
        <mxCell id="NtLkrbkxCxMrIHebwTUG-5" value="$index,value1,value2,value3" style="html=1;verticalAlign=bottom;endArrow=block;edgeStyle=elbowEdgeStyle;elbow=vertical;curved=0;rounded=0;" edge="1" parent="1">
          <mxGeometry x="-0.0008" relative="1" as="geometry">
            <mxPoint x="570" y="700.71" as="sourcePoint" />
            <Array as="points">
              <mxPoint x="500" y="701" />
              <mxPoint x="425" y="721" />
            </Array>
            <mxPoint x="210" y="701" as="targetPoint" />
            <mxPoint as="offset" />
          </mxGeometry>
        </mxCell>
        <mxCell id="NtLkrbkxCxMrIHebwTUG-6" value="$index,value1,value2,value3" style="html=1;verticalAlign=bottom;endArrow=block;edgeStyle=elbowEdgeStyle;elbow=vertical;curved=0;rounded=0;" edge="1" parent="1">
          <mxGeometry x="-0.0008" relative="1" as="geometry">
            <mxPoint x="570" y="740" as="sourcePoint" />
            <Array as="points">
              <mxPoint x="500" y="740.29" />
              <mxPoint x="425" y="760.29" />
            </Array>
            <mxPoint x="210" y="740.29" as="targetPoint" />
            <mxPoint as="offset" />
          </mxGeometry>
        </mxCell>
        <mxCell id="NtLkrbkxCxMrIHebwTUG-7" value="$index,value1,value2,value3" style="html=1;verticalAlign=bottom;endArrow=block;edgeStyle=elbowEdgeStyle;elbow=vertical;curved=0;rounded=0;" edge="1" parent="1">
          <mxGeometry x="-0.0008" relative="1" as="geometry">
            <mxPoint x="570" y="780" as="sourcePoint" />
            <Array as="points">
              <mxPoint x="500" y="780.29" />
              <mxPoint x="425" y="800.29" />
            </Array>
            <mxPoint x="210" y="780.29" as="targetPoint" />
            <mxPoint as="offset" />
          </mxGeometry>
        </mxCell>
        <mxCell id="NtLkrbkxCxMrIHebwTUG-8" value="AT+CFG=index,format,range,period=0" style="html=1;verticalAlign=bottom;endArrow=block;edgeStyle=elbowEdgeStyle;elbow=vertical;curved=0;rounded=0;exitX=0.523;exitY=0.264;exitDx=0;exitDy=0;exitPerimeter=0;" edge="1" parent="1">
          <mxGeometry x="0.0005" relative="1" as="geometry">
            <mxPoint x="210" y="830" as="sourcePoint" />
            <Array as="points" />
            <mxPoint x="568" y="831" as="targetPoint" />
            <mxPoint as="offset" />
          </mxGeometry>
        </mxCell>
        <mxCell id="NtLkrbkxCxMrIHebwTUG-9" value="OK" style="html=1;verticalAlign=bottom;endArrow=block;edgeStyle=elbowEdgeStyle;elbow=vertical;curved=0;rounded=0;" edge="1" parent="1">
          <mxGeometry x="-0.0008" relative="1" as="geometry">
            <mxPoint x="570" y="869.9999999999999" as="sourcePoint" />
            <Array as="points">
              <mxPoint x="500" y="870.29" />
              <mxPoint x="425" y="890.29" />
            </Array>
            <mxPoint x="210" y="870.29" as="targetPoint" />
            <mxPoint as="offset" />
          </mxGeometry>
        </mxCell>
      </root>
    </mxGraphModel>
  </diagram>
</mxfile>
